<svg xmlns="http://www.w3.org/2000/svg" xmlns:xlink="http://www.w3.org/1999/xlink" width="1200" zoomAndPan="magnify" viewBox="0 0 900 899.99999" height="1200" preserveAspectRatio="xMidYMid meet" version="1.0"><defs><clipPath id="26fbb2ebe3"><path d="M 182.765625 102.847656 L 717.515625 102.847656 L 717.515625 538.597656 L 182.765625 538.597656 Z M 182.765625 102.847656 " clip-rule="nonzero"/></clipPath></defs><g clip-path="url(#26fbb2ebe3)"><path fill="#ff751f" d="M 673.042969 331.371094 L 673.042969 182.441406 C 673.042969 181.1875 672.6875 180.023438 672.089844 179.027344 C 672.089844 179.027344 628.429688 106.109375 628.429688 106.109375 C 627.234375 104.101562 625.0625 102.871094 622.722656 102.871094 L 331.480469 102.871094 C 329.140625 102.871094 326.980469 104.101562 325.769531 106.109375 L 282.113281 179.027344 C 281.515625 180.023438 281.160156 181.1875 281.160156 182.441406 L 281.160156 242.347656 L 264.035156 259.472656 C 252.5625 270.941406 238.519531 276.761719 222.304688 276.761719 L 189.519531 276.761719 C 185.851562 276.761719 182.871094 279.742188 182.871094 283.414062 L 182.871094 438.914062 C 182.871094 442.585938 185.851562 445.566406 189.519531 445.566406 L 200.160156 445.566406 C 208.019531 445.566406 214.492188 447.4375 221.140625 451.628906 L 225.585938 454.433594 C 234.363281 459.972656 243.285156 462.558594 253.671875 462.558594 L 281.160156 462.558594 L 281.160156 488.015625 C 281.160156 491.683594 284.140625 494.667969 287.808594 494.667969 L 510.28125 494.667969 C 531.570312 521.320312 564.335938 538.433594 601.019531 538.433594 C 665.027344 538.433594 717.101562 486.363281 717.101562 422.355469 C 717.101562 385.535156 699.863281 352.664062 673.03125 331.382812 Z M 654.664062 175.78125 L 483.757812 175.78125 L 483.757812 116.160156 L 618.964844 116.160156 L 654.65625 175.78125 Z M 432.992188 189.078125 L 521.230469 189.078125 L 521.230469 244.597656 L 432.992188 244.597656 Z M 335.246094 116.160156 L 470.457031 116.160156 L 470.457031 175.78125 L 299.558594 175.78125 Z M 222.316406 290.050781 C 242.1875 290.050781 259.402344 282.925781 273.457031 268.871094 L 281.171875 261.15625 L 281.171875 283.234375 L 264.046875 300.359375 C 252.574219 311.832031 238.53125 317.648438 222.316406 317.648438 L 196.179688 317.648438 L 196.179688 290.0625 L 222.316406 290.0625 Z M 232.703125 443.183594 L 228.257812 440.378906 C 219.480469 434.835938 210.558594 432.253906 200.171875 432.253906 L 196.179688 432.253906 L 196.179688 330.9375 L 222.316406 330.9375 C 242.1875 330.9375 259.402344 323.8125 273.457031 309.757812 L 318.910156 264.304688 L 320.75 266.144531 C 323.941406 269.335938 325.703125 273.601562 325.703125 278.160156 C 325.703125 282.714844 323.941406 286.980469 320.75 290.171875 L 291.335938 319.589844 C 289.429688 321.496094 288.863281 324.355469 289.894531 326.839844 C 290.925781 329.320312 293.351562 330.9375 296.035156 330.9375 L 386.1875 330.9375 C 391.597656 330.9375 395.984375 335.339844 395.984375 340.738281 C 395.984375 346.132812 391.585938 350.535156 386.1875 350.535156 L 322.480469 350.535156 C 318.808594 350.535156 315.828125 353.515625 315.828125 357.183594 C 315.828125 360.855469 318.808594 363.835938 322.480469 363.835938 L 402.191406 363.835938 C 407.601562 363.835938 411.992188 368.234375 411.992188 373.632812 C 411.992188 379.03125 407.589844 383.429688 402.191406 383.429688 L 322.480469 383.429688 C 318.808594 383.429688 315.828125 386.414062 315.828125 390.082031 C 315.828125 393.75 318.808594 396.730469 322.480469 396.730469 L 386.1875 396.730469 C 391.597656 396.730469 395.984375 401.132812 395.984375 406.527344 C 395.984375 411.925781 391.585938 416.328125 386.1875 416.328125 L 322.480469 416.328125 C 318.808594 416.328125 315.828125 419.308594 315.828125 422.976562 C 315.828125 426.644531 318.808594 429.628906 322.480469 429.628906 L 353.578125 429.628906 C 358.988281 429.628906 363.378906 434.027344 363.378906 439.425781 C 363.378906 444.824219 358.976562 449.222656 353.578125 449.222656 L 253.671875 449.222656 C 245.8125 449.222656 239.339844 447.351562 232.691406 443.160156 Z M 294.472656 481.355469 L 294.472656 462.546875 L 353.589844 462.546875 C 366.324219 462.546875 376.6875 452.183594 376.6875 439.449219 C 376.6875 435.945312 375.902344 432.621094 374.503906 429.648438 L 386.1875 429.648438 C 398.921875 429.648438 409.285156 419.285156 409.285156 406.550781 C 409.285156 402.859375 408.421875 399.367188 406.871094 396.277344 C 417.378906 394.105469 425.289062 384.78125 425.289062 373.65625 C 425.289062 362.527344 417.367188 353.195312 406.871094 351.035156 C 408.410156 347.941406 409.285156 344.449219 409.285156 340.757812 C 409.285156 328.023438 398.921875 317.660156 386.1875 317.660156 L 312.09375 317.660156 L 330.148438 299.605469 C 335.855469 293.898438 339.003906 286.292969 339.003906 278.179688 C 339.003906 270.066406 335.855469 262.476562 330.148438 256.757812 L 323.597656 250.207031 C 321.003906 247.613281 316.792969 247.613281 314.1875 250.207031 L 294.449219 269.945312 L 294.449219 189.089844 L 419.671875 189.089844 L 419.671875 251.257812 C 419.671875 254.925781 422.652344 257.910156 426.320312 257.910156 L 527.859375 257.910156 C 531.527344 257.910156 534.507812 254.925781 534.507812 251.257812 L 534.507812 189.089844 L 659.730469 189.089844 L 659.730469 322.25 C 642.496094 312.097656 622.421875 306.265625 601.019531 306.265625 C 537.011719 306.265625 484.941406 358.335938 484.941406 422.34375 C 484.941406 443.882812 490.839844 464.054688 501.101562 481.355469 Z M 601.03125 525.125 C 544.363281 525.125 498.253906 479.015625 498.253906 422.34375 C 498.253906 365.675781 544.363281 319.566406 601.03125 319.566406 C 657.703125 319.566406 703.8125 365.675781 703.8125 422.34375 C 703.8125 479.015625 657.703125 525.125 601.03125 525.125 Z M 627.898438 373.886719 L 585.082031 419.453125 L 573.078125 408.179688 C 563.25 398.949219 547.730469 399.425781 538.488281 409.253906 C 529.242188 419.085938 529.730469 434.613281 539.5625 443.847656 L 569.398438 471.878906 C 574.109375 476.300781 580.128906 478.496094 586.136719 478.496094 C 592.664062 478.496094 599.171875 475.914062 603.992188 470.804688 L 663.566406 407.394531 C 672.808594 397.5625 672.324219 382.046875 662.492188 372.800781 C 652.660156 363.558594 637.144531 364.046875 627.898438 373.875 Z M 653.878906 398.292969 L 594.316406 461.691406 C 590.082031 466.179688 583 466.402344 578.511719 462.191406 L 548.671875 434.160156 C 544.183594 429.9375 543.964844 422.855469 548.1875 418.367188 C 550.378906 416.027344 553.351562 414.851562 556.332031 414.851562 C 559.082031 414.851562 561.828125 415.851562 563.980469 417.878906 L 580.828125 433.707031 C 582.113281 434.914062 583.820312 435.566406 585.59375 435.5 C 587.355469 435.445312 589.027344 434.691406 590.238281 433.40625 L 637.609375 382.988281 C 641.832031 378.5 648.914062 378.277344 653.402344 382.5 C 657.890625 386.722656 658.113281 393.804688 653.890625 398.292969 Z M 653.878906 398.292969 " fill-opacity="1" fill-rule="nonzero"/></g><path stroke-linecap="butt" transform="matrix(0.75, 0, 0, 0.75, 254.144199, 555.313167)" fill="none" stroke-linejoin="miter" d="M 0.000442334 1.999111 L 522.28172 1.999111 " stroke="#ffbd59" stroke-width="4" stroke-opacity="1" stroke-miterlimit="4"/><path stroke-linecap="butt" transform="matrix(0.75, 0, 0, 0.75, 254.144199, 585.313165)" fill="none" stroke-linejoin="miter" d="M 0.000442334 1.999113 L 522.28172 1.999113 " stroke="#ffbd59" stroke-width="4" stroke-opacity="1" stroke-miterlimit="4"/><path stroke-linecap="butt" transform="matrix(0.75, 0, 0, 0.75, 254.144199, 615.313164)" fill="none" stroke-linejoin="miter" d="M 0.000442334 1.999115 L 522.28172 1.999115 " stroke="#ffbd59" stroke-width="4" stroke-opacity="1" stroke-miterlimit="4"/></svg>