<svg xmlns="http://www.w3.org/2000/svg" xmlns:xlink="http://www.w3.org/1999/xlink" width="1200" zoomAndPan="magnify" viewBox="0 0 900 899.99999" height="1200" preserveAspectRatio="xMidYMid meet" version="1.0"><defs><g/><clipPath id="d7047c1ff5"><path d="M 45.707031 245.039062 L 405.707031 245.039062 L 405.707031 538.289062 L 45.707031 538.289062 Z M 45.707031 245.039062 " clip-rule="nonzero"/></clipPath><clipPath id="2d10411ecc"><rect x="0" width="362" y="0" height="66"/></clipPath><clipPath id="0ec4b324ef"><rect x="0" width="432" y="0" height="58"/></clipPath></defs><g clip-path="url(#d7047c1ff5)"><path fill="#ff751f" d="M 375.9375 398.960938 L 375.9375 298.648438 C 375.9375 297.804688 375.699219 297.019531 375.296875 296.347656 C 375.296875 296.347656 345.890625 247.234375 345.890625 247.234375 C 345.085938 245.882812 343.621094 245.054688 342.046875 245.054688 L 145.878906 245.054688 C 144.300781 245.054688 142.847656 245.882812 142.03125 247.234375 L 112.625 296.347656 C 112.222656 297.019531 111.984375 297.804688 111.984375 298.648438 L 111.984375 338.996094 L 100.449219 350.53125 C 92.722656 358.257812 83.265625 362.179688 72.34375 362.179688 L 50.261719 362.179688 C 47.789062 362.179688 45.78125 364.1875 45.78125 366.65625 L 45.78125 471.398438 C 45.78125 473.867188 47.789062 475.875 50.261719 475.875 L 57.425781 475.875 C 62.71875 475.875 67.082031 477.136719 71.558594 479.960938 L 74.554688 481.847656 C 80.464844 485.582031 86.476562 487.320312 93.46875 487.320312 L 111.984375 487.320312 L 111.984375 504.46875 C 111.984375 506.941406 113.992188 508.949219 116.464844 508.949219 L 266.308594 508.949219 C 280.652344 526.902344 302.71875 538.429688 327.429688 538.429688 C 370.542969 538.429688 405.613281 503.355469 405.613281 460.242188 C 405.613281 435.445312 394.003906 413.300781 375.933594 398.96875 Z M 363.5625 294.160156 L 248.445312 294.160156 L 248.445312 254.003906 L 339.515625 254.003906 L 363.554688 294.160156 Z M 214.253906 303.117188 L 273.683594 303.117188 L 273.683594 340.511719 L 214.253906 340.511719 Z M 148.414062 254.003906 L 239.488281 254.003906 L 239.488281 294.160156 L 124.378906 294.160156 Z M 72.351562 371.128906 C 85.738281 371.128906 97.332031 366.328125 106.796875 356.863281 L 111.992188 351.667969 L 111.992188 366.539062 L 100.457031 378.070312 C 92.730469 385.796875 83.273438 389.71875 72.351562 389.71875 L 54.746094 389.71875 L 54.746094 371.136719 L 72.351562 371.136719 Z M 79.347656 474.269531 L 76.351562 472.382812 C 70.441406 468.648438 64.429688 466.910156 57.433594 466.910156 L 54.746094 466.910156 L 54.746094 398.667969 L 72.351562 398.667969 C 85.738281 398.667969 97.332031 393.867188 106.796875 384.402344 L 137.410156 353.785156 L 138.652344 355.027344 C 140.800781 357.175781 141.988281 360.050781 141.988281 363.117188 C 141.988281 366.1875 140.800781 369.0625 138.652344 371.210938 L 118.839844 391.023438 C 117.554688 392.308594 117.171875 394.234375 117.867188 395.90625 C 118.5625 397.578125 120.195312 398.667969 122.003906 398.667969 L 182.726562 398.667969 C 186.371094 398.667969 189.328125 401.632812 189.328125 405.269531 C 189.328125 408.902344 186.363281 411.867188 182.726562 411.867188 L 139.816406 411.867188 C 137.34375 411.867188 135.335938 413.875 135.335938 416.347656 C 135.335938 418.816406 137.34375 420.828125 139.816406 420.828125 L 193.507812 420.828125 C 197.148438 420.828125 200.105469 423.789062 200.105469 427.425781 C 200.105469 431.0625 197.144531 434.023438 193.507812 434.023438 L 139.816406 434.023438 C 137.34375 434.023438 135.335938 436.035156 135.335938 438.503906 C 135.335938 440.976562 137.34375 442.984375 139.816406 442.984375 L 182.726562 442.984375 C 186.371094 442.984375 189.328125 445.949219 189.328125 449.582031 C 189.328125 453.21875 186.363281 456.183594 182.726562 456.183594 L 139.816406 456.183594 C 137.34375 456.183594 135.335938 458.191406 135.335938 460.660156 C 135.335938 463.132812 137.34375 465.140625 139.816406 465.140625 L 160.765625 465.140625 C 164.40625 465.140625 167.363281 468.105469 167.363281 471.742188 C 167.363281 475.375 164.398438 478.339844 160.765625 478.339844 L 93.46875 478.339844 C 88.175781 478.339844 83.816406 477.078125 79.339844 474.257812 Z M 120.949219 499.980469 L 120.949219 487.3125 L 160.769531 487.3125 C 169.347656 487.3125 176.328125 480.332031 176.328125 471.753906 C 176.328125 469.394531 175.800781 467.15625 174.859375 465.15625 L 182.726562 465.15625 C 191.304688 465.15625 198.285156 458.175781 198.285156 449.597656 C 198.285156 447.113281 197.703125 444.761719 196.65625 442.675781 C 203.734375 441.214844 209.066406 434.9375 209.066406 427.441406 C 209.066406 419.945312 203.726562 413.660156 196.65625 412.203125 C 197.695312 410.121094 198.285156 407.769531 198.285156 405.285156 C 198.285156 396.707031 191.304688 389.726562 182.726562 389.726562 L 132.820312 389.726562 L 144.980469 377.5625 C 148.828125 373.71875 150.945312 368.597656 150.945312 363.132812 C 150.945312 357.667969 148.828125 352.554688 144.980469 348.703125 L 140.570312 344.289062 C 138.824219 342.542969 135.984375 342.542969 134.230469 344.289062 L 120.9375 357.585938 L 120.9375 303.125 L 205.28125 303.125 L 205.28125 345 C 205.28125 347.472656 207.289062 349.480469 209.757812 349.480469 L 278.148438 349.480469 C 280.621094 349.480469 282.628906 347.472656 282.628906 345 L 282.628906 303.125 L 366.972656 303.125 L 366.972656 392.816406 C 355.363281 385.976562 341.84375 382.050781 327.429688 382.050781 C 284.316406 382.050781 249.242188 417.125 249.242188 460.234375 C 249.242188 474.742188 253.214844 488.328125 260.128906 499.980469 Z M 327.4375 529.460938 C 289.265625 529.460938 258.210938 498.40625 258.210938 460.234375 C 258.210938 422.066406 289.265625 391.007812 327.4375 391.007812 C 365.605469 391.007812 396.664062 422.066406 396.664062 460.234375 C 396.664062 498.40625 365.605469 529.460938 327.4375 529.460938 Z M 345.53125 427.597656 L 316.695312 458.289062 L 308.609375 450.695312 C 301.988281 444.476562 291.535156 444.796875 285.308594 451.417969 C 279.082031 458.042969 279.410156 468.5 286.035156 474.71875 L 306.128906 493.597656 C 309.304688 496.578125 313.355469 498.054688 317.402344 498.054688 C 321.800781 498.054688 326.183594 496.316406 329.429688 492.875 L 369.554688 450.164062 C 375.78125 443.542969 375.453125 433.09375 368.832031 426.867188 C 362.210938 420.640625 351.757812 420.96875 345.53125 427.589844 Z M 363.03125 444.035156 L 322.914062 486.738281 C 320.0625 489.761719 315.289062 489.910156 312.265625 487.074219 L 292.167969 468.195312 C 289.144531 465.351562 288.996094 460.578125 291.839844 457.554688 C 293.320312 455.980469 295.320312 455.191406 297.328125 455.191406 C 299.179688 455.191406 301.03125 455.863281 302.480469 457.226562 L 313.828125 467.886719 C 314.691406 468.703125 315.84375 469.140625 317.039062 469.097656 C 318.222656 469.058594 319.351562 468.550781 320.164062 467.6875 L 352.074219 433.726562 C 354.917969 430.703125 359.6875 430.554688 362.710938 433.398438 C 365.734375 436.242188 365.882812 441.011719 363.039062 444.035156 Z M 363.03125 444.035156 " fill-opacity="1" fill-rule="nonzero"/></g><g transform="matrix(1, 0, 0, 1, 456, 310)"><g clip-path="url(#2d10411ecc)"><g fill="#262626" fill-opacity="1"><g transform="translate(1.141463, 51.450557)"><g><path d="M 22.46875 0.859375 C 18.5 0.859375 14.921875 0.03125 11.734375 -1.625 C 8.554688 -3.289062 6.066406 -5.617188 4.265625 -8.609375 C 2.460938 -11.597656 1.5625 -14.988281 1.5625 -18.78125 C 1.5625 -22.5625 2.460938 -25.945312 4.265625 -28.9375 C 6.066406 -31.925781 8.554688 -34.25 11.734375 -35.90625 C 14.921875 -37.570312 18.5 -38.40625 22.46875 -38.40625 C 26.125 -38.40625 29.378906 -37.757812 32.234375 -36.46875 C 35.097656 -35.1875 37.457031 -33.328125 39.3125 -30.890625 L 31.328125 -23.765625 C 29.003906 -26.691406 26.269531 -28.15625 23.125 -28.15625 C 20.476562 -28.15625 18.347656 -27.304688 16.734375 -25.609375 C 15.128906 -23.910156 14.328125 -21.632812 14.328125 -18.78125 C 14.328125 -15.914062 15.128906 -13.632812 16.734375 -11.9375 C 18.347656 -10.238281 20.476562 -9.390625 23.125 -9.390625 C 26.269531 -9.390625 29.003906 -10.851562 31.328125 -13.78125 L 39.3125 -6.65625 C 37.457031 -4.21875 35.097656 -2.351562 32.234375 -1.0625 C 29.378906 0.21875 26.125 0.859375 22.46875 0.859375 Z M 22.46875 0.859375 "/></g></g></g><g fill="#262626" fill-opacity="1"><g transform="translate(50.32652, 51.450557)"><g><path d="M 22.75 0.859375 C 18.707031 0.859375 15.078125 0.0195312 11.859375 -1.65625 C 8.640625 -3.34375 6.117188 -5.675781 4.296875 -8.65625 C 2.472656 -11.644531 1.5625 -15.019531 1.5625 -18.78125 C 1.5625 -22.53125 2.472656 -25.894531 4.296875 -28.875 C 6.117188 -31.863281 8.640625 -34.195312 11.859375 -35.875 C 15.078125 -37.5625 18.707031 -38.40625 22.75 -38.40625 C 26.789062 -38.40625 30.414062 -37.5625 33.625 -35.875 C 36.84375 -34.195312 39.363281 -31.863281 41.1875 -28.875 C 43.019531 -25.894531 43.9375 -22.53125 43.9375 -18.78125 C 43.9375 -15.019531 43.019531 -11.644531 41.1875 -8.65625 C 39.363281 -5.675781 36.84375 -3.34375 33.625 -1.65625 C 30.414062 0.0195312 26.789062 0.859375 22.75 0.859375 Z M 22.75 -9.390625 C 24.320312 -9.390625 25.738281 -9.769531 27 -10.53125 C 28.269531 -11.300781 29.28125 -12.394531 30.03125 -13.8125 C 30.789062 -15.226562 31.171875 -16.882812 31.171875 -18.78125 C 31.171875 -20.664062 30.789062 -22.316406 30.03125 -23.734375 C 29.28125 -25.148438 28.269531 -26.238281 27 -27 C 25.738281 -27.769531 24.320312 -28.15625 22.75 -28.15625 C 21.175781 -28.15625 19.753906 -27.769531 18.484375 -27 C 17.210938 -26.238281 16.203125 -25.148438 15.453125 -23.734375 C 14.703125 -22.316406 14.328125 -20.664062 14.328125 -18.78125 C 14.328125 -16.882812 14.703125 -15.226562 15.453125 -13.8125 C 16.203125 -12.394531 17.210938 -11.300781 18.484375 -10.53125 C 19.753906 -9.769531 21.175781 -9.390625 22.75 -9.390625 Z M 22.75 -9.390625 "/></g></g></g><g fill="#262626" fill-opacity="1"><g transform="translate(105.894322, 51.450557)"><g><path d="M 3.0625 -37.546875 L 15.71875 -37.546875 L 15.71875 -9.8125 L 32.671875 -9.8125 L 32.671875 0 L 3.0625 0 Z M 3.0625 -37.546875 "/></g></g></g><g fill="#262626" fill-opacity="1"><g transform="translate(149.072128, 51.450557)"><g><path d="M 34.28125 -9.546875 L 34.28125 0 L 3.0625 0 L 3.0625 -37.546875 L 33.578125 -37.546875 L 33.578125 -28 L 15.5 -28 L 15.5 -23.609375 L 31.375 -23.609375 L 31.375 -14.484375 L 15.5 -14.484375 L 15.5 -9.546875 Z M 34.28125 -9.546875 "/></g></g></g><g fill="#262626" fill-opacity="1"><g transform="translate(195.253559, 51.450557)"><g><path d="M 11.203125 -27.734375 L 0.21875 -27.734375 L 0.21875 -37.546875 L 34.859375 -37.546875 L 34.859375 -27.734375 L 23.875 -27.734375 L 23.875 0 L 11.203125 0 Z M 11.203125 -27.734375 "/></g></g></g><g fill="#262626" fill-opacity="1"><g transform="translate(239.879539, 51.450557)"><g><path d="M 21.03125 0.859375 C 15.269531 0.859375 10.78125 -0.691406 7.5625 -3.796875 C 4.34375 -6.910156 2.734375 -11.273438 2.734375 -16.890625 L 2.734375 -37.546875 L 15.390625 -37.546875 L 15.390625 -17.265625 C 15.390625 -14.515625 15.878906 -12.515625 16.859375 -11.265625 C 17.847656 -10.015625 19.273438 -9.390625 21.140625 -9.390625 C 22.992188 -9.390625 24.410156 -10.015625 25.390625 -11.265625 C 26.378906 -12.515625 26.875 -14.515625 26.875 -17.265625 L 26.875 -37.546875 L 39.3125 -37.546875 L 39.3125 -16.890625 C 39.3125 -11.273438 37.703125 -6.910156 34.484375 -3.796875 C 31.265625 -0.691406 26.78125 0.859375 21.03125 0.859375 Z M 21.03125 0.859375 "/></g></g></g><g fill="#262626" fill-opacity="1"><g transform="translate(292.014623, 51.450557)"><g><path d="M 3.0625 -37.546875 L 15.71875 -37.546875 L 15.71875 -9.8125 L 32.671875 -9.8125 L 32.671875 0 L 3.0625 0 Z M 3.0625 -37.546875 "/></g></g></g><g fill="#262626" fill-opacity="1"><g transform="translate(335.198646, 51.450557)"><g/></g></g></g></g><g transform="matrix(1, 0, 0, 1, 420, 390)"><g clip-path="url(#0ec4b324ef)"><g fill="#262626" fill-opacity="1"><g transform="translate(0.421791, 45.284032)"><g><path d="M 14.75 0.734375 C 12.050781 0.734375 9.425781 0.4375 6.875 -0.15625 C 4.332031 -0.757812 2.242188 -1.570312 0.609375 -2.59375 L 4.125 -10.5625 C 5.664062 -9.664062 7.394531 -8.945312 9.3125 -8.40625 C 11.226562 -7.875 13.066406 -7.609375 14.828125 -7.609375 C 16.347656 -7.609375 17.429688 -7.753906 18.078125 -8.046875 C 18.722656 -8.335938 19.046875 -8.773438 19.046875 -9.359375 C 19.046875 -10.046875 18.617188 -10.554688 17.765625 -10.890625 C 16.921875 -11.234375 15.523438 -11.601562 13.578125 -12 C 11.078125 -12.53125 8.992188 -13.097656 7.328125 -13.703125 C 5.660156 -14.304688 4.207031 -15.296875 2.96875 -16.671875 C 1.726562 -18.046875 1.109375 -19.90625 1.109375 -22.25 C 1.109375 -24.289062 1.679688 -26.144531 2.828125 -27.8125 C 3.972656 -29.476562 5.679688 -30.789062 7.953125 -31.75 C 10.222656 -32.707031 12.976562 -33.1875 16.21875 -33.1875 C 18.445312 -33.1875 20.632812 -32.945312 22.78125 -32.46875 C 24.925781 -31.988281 26.820312 -31.285156 28.46875 -30.359375 L 25.171875 -22.4375 C 21.984375 -24.039062 18.972656 -24.84375 16.140625 -24.84375 C 13.328125 -24.84375 11.921875 -24.164062 11.921875 -22.8125 C 11.921875 -22.15625 12.335938 -21.664062 13.171875 -21.34375 C 14.003906 -21.019531 15.378906 -20.675781 17.296875 -20.3125 C 19.765625 -19.84375 21.847656 -19.304688 23.546875 -18.703125 C 25.242188 -18.097656 26.71875 -17.113281 27.96875 -15.75 C 29.226562 -14.394531 29.859375 -12.546875 29.859375 -10.203125 C 29.859375 -8.160156 29.285156 -6.3125 28.140625 -4.65625 C 26.992188 -3 25.285156 -1.6875 23.015625 -0.71875 C 20.742188 0.25 17.988281 0.734375 14.75 0.734375 Z M 14.75 0.734375 "/></g></g></g><g fill="#262626" fill-opacity="1"><g transform="translate(38.064927, 45.284032)"><g><path d="M 9.6875 -23.96875 L 0.1875 -23.96875 L 0.1875 -32.453125 L 30.140625 -32.453125 L 30.140625 -23.96875 L 20.625 -23.96875 L 20.625 0 L 9.6875 0 Z M 9.6875 -23.96875 "/></g></g></g><g fill="#262626" fill-opacity="1"><g transform="translate(75.568988, 45.284032)"><g><path d="M 18.171875 0.734375 C 13.191406 0.734375 9.3125 -0.609375 6.53125 -3.296875 C 3.75 -5.984375 2.359375 -9.753906 2.359375 -14.609375 L 2.359375 -32.453125 L 13.3125 -32.453125 L 13.3125 -14.921875 C 13.3125 -12.546875 13.734375 -10.816406 14.578125 -9.734375 C 15.429688 -8.648438 16.660156 -8.109375 18.265625 -8.109375 C 19.867188 -8.109375 21.09375 -8.648438 21.9375 -9.734375 C 22.789062 -10.816406 23.21875 -12.546875 23.21875 -14.921875 L 23.21875 -32.453125 L 33.984375 -32.453125 L 33.984375 -14.609375 C 33.984375 -9.753906 32.59375 -5.984375 29.8125 -3.296875 C 27.03125 -0.609375 23.148438 0.734375 18.171875 0.734375 Z M 18.171875 0.734375 "/></g></g></g><g fill="#262626" fill-opacity="1"><g transform="translate(119.0996, 45.284032)"><g><path d="M 2.640625 -32.453125 L 18.640625 -32.453125 C 22.253906 -32.453125 25.441406 -31.796875 28.203125 -30.484375 C 30.972656 -29.171875 33.125 -27.289062 34.65625 -24.84375 C 36.1875 -22.40625 36.953125 -19.53125 36.953125 -16.21875 C 36.953125 -12.914062 36.1875 -10.039062 34.65625 -7.59375 C 33.125 -5.15625 30.972656 -3.28125 28.203125 -1.96875 C 25.441406 -0.65625 22.253906 0 18.640625 0 L 2.640625 0 Z M 18.171875 -8.53125 C 20.523438 -8.53125 22.40625 -9.203125 23.8125 -10.546875 C 25.21875 -11.890625 25.921875 -13.78125 25.921875 -16.21875 C 25.921875 -18.664062 25.21875 -20.5625 23.8125 -21.90625 C 22.40625 -23.25 20.523438 -23.921875 18.171875 -23.921875 L 13.578125 -23.921875 L 13.578125 -8.53125 Z M 18.171875 -8.53125 "/></g></g></g><g fill="#262626" fill-opacity="1"><g transform="translate(164.57725, 45.284032)"><g><path d="M 29.625 -8.25 L 29.625 0 L 2.640625 0 L 2.640625 -32.453125 L 29.015625 -32.453125 L 29.015625 -24.203125 L 13.390625 -24.203125 L 13.390625 -20.390625 L 27.125 -20.390625 L 27.125 -12.515625 L 13.390625 -12.515625 L 13.390625 -8.25 Z M 29.625 -8.25 "/></g></g></g><g fill="#262626" fill-opacity="1"><g transform="translate(202.962124, 45.284032)"><g><path d="M 34.625 -32.453125 L 34.625 0 L 25.640625 0 L 13.3125 -14.75 L 13.3125 0 L 2.640625 0 L 2.640625 -32.453125 L 11.640625 -32.453125 L 23.96875 -17.703125 L 23.96875 -32.453125 Z M 34.625 -32.453125 "/></g></g></g><g fill="#262626" fill-opacity="1"><g transform="translate(247.419896, 45.284032)"><g><path d="M 9.6875 -23.96875 L 0.1875 -23.96875 L 0.1875 -32.453125 L 30.140625 -32.453125 L 30.140625 -23.96875 L 20.625 -23.96875 L 20.625 0 L 9.6875 0 Z M 9.6875 -23.96875 "/></g></g></g><g fill="#262626" fill-opacity="1"><g transform="translate(284.923942, 45.284032)"><g><path d="M 18.171875 0.734375 C 13.191406 0.734375 9.3125 -0.609375 6.53125 -3.296875 C 3.75 -5.984375 2.359375 -9.753906 2.359375 -14.609375 L 2.359375 -32.453125 L 13.3125 -32.453125 L 13.3125 -14.921875 C 13.3125 -12.546875 13.734375 -10.816406 14.578125 -9.734375 C 15.429688 -8.648438 16.660156 -8.109375 18.265625 -8.109375 C 19.867188 -8.109375 21.09375 -8.648438 21.9375 -9.734375 C 22.789062 -10.816406 23.21875 -12.546875 23.21875 -14.921875 L 23.21875 -32.453125 L 33.984375 -32.453125 L 33.984375 -14.609375 C 33.984375 -9.753906 32.59375 -5.984375 29.8125 -3.296875 C 27.03125 -0.609375 23.148438 0.734375 18.171875 0.734375 Z M 18.171875 0.734375 "/></g></g></g><g fill="#262626" fill-opacity="1"><g transform="translate(328.454547, 45.284032)"><g><path d="M 2.640625 -32.453125 L 13.578125 -32.453125 L 13.578125 -8.484375 L 28.234375 -8.484375 L 28.234375 0 L 2.640625 0 Z M 2.640625 -32.453125 "/></g></g></g><g fill="#262626" fill-opacity="1"><g transform="translate(364.243385, 45.284032)"><g><path d="M 18.171875 0.734375 C 13.191406 0.734375 9.3125 -0.609375 6.53125 -3.296875 C 3.75 -5.984375 2.359375 -9.753906 2.359375 -14.609375 L 2.359375 -32.453125 L 13.3125 -32.453125 L 13.3125 -14.921875 C 13.3125 -12.546875 13.734375 -10.816406 14.578125 -9.734375 C 15.429688 -8.648438 16.660156 -8.109375 18.265625 -8.109375 C 19.867188 -8.109375 21.09375 -8.648438 21.9375 -9.734375 C 22.789062 -10.816406 23.21875 -12.546875 23.21875 -14.921875 L 23.21875 -32.453125 L 33.984375 -32.453125 L 33.984375 -14.609375 C 33.984375 -9.753906 32.59375 -5.984375 29.8125 -3.296875 C 27.03125 -0.609375 23.148438 0.734375 18.171875 0.734375 Z M 18.171875 0.734375 "/></g></g></g><g fill="#262626" fill-opacity="1"><g transform="translate(407.773989, 45.284032)"><g><path d="M 2.640625 -32.453125 L 13.578125 -32.453125 L 13.578125 0 L 2.640625 0 Z M 2.640625 -32.453125 "/></g></g></g></g></g><path stroke-linecap="butt" transform="matrix(0.75, 0, 0, 0.75, 45.705331, 555.313167)" fill="none" stroke-linejoin="miter" d="M 0.00226672 1.999111 L 522.283544 1.999111 " stroke="#ffbd59" stroke-width="4" stroke-opacity="1" stroke-miterlimit="4"/><path stroke-linecap="butt" transform="matrix(0.75, 0, 0, 0.75, 45.705331, 585.313165)" fill="none" stroke-linejoin="miter" d="M 0.00226672 1.999113 L 522.283544 1.999113 " stroke="#ffbd59" stroke-width="4" stroke-opacity="1" stroke-miterlimit="4"/><path stroke-linecap="butt" transform="matrix(0.75, 0, 0, 0.75, 45.705331, 615.313164)" fill="none" stroke-linejoin="miter" d="M 0.00226672 1.999115 L 522.283544 1.999115 " stroke="#ffbd59" stroke-width="4" stroke-opacity="1" stroke-miterlimit="4"/></svg>